<?xml version="1.0" standalone="no"?>
<!DOCTYPE svg PUBLIC "-//W3C//DTD SVG 20010904//EN"
 "http://www.w3.org/TR/2001/REC-SVG-20010904/DTD/svg10.dtd">
<svg version="1.0" xmlns="http://www.w3.org/2000/svg"
 width="700.000000pt" height="700.000000pt" viewBox="0 0 700.000000 700.000000"
 preserveAspectRatio="xMidYMid meet">
<metadata>
Created by potrace 1.11, written by Peter Selinger 2001-2013
</metadata>
<g transform="translate(0.000000,700.000000) scale(0.100000,-0.100000)"
fill="#000000" stroke="none">
<path d="M263 6782 l-43 -3 0 -57 c-3 -523 0 -6495 3 -6499 7 -6 6547 -6 6554
0 6 6 6 6548 0 6554 -5 5 -6446 10 -6514 5z m6287 -3282 l0 -3050 -3050 0
-3050 0 0 3050 0 3050 3050 0 3050 0 0 -3050z"/>
<path d="M1540 4591 c0 -614 3 -780 13 -783 10 -3 218 -2 253 1 7 1 10 151 10
506 -1 278 1 505 4 505 4 -1 305 -490 365 -594 27 -47 137 -230 141 -235 2 -2
33 -5 69 -6 l66 -1 67 110 c37 61 72 120 78 131 16 31 345 578 358 597 9 13
12 -90 13 -445 1 -254 2 -487 2 -517 l1 -55 135 0 c113 0 135 2 136 15 0 8 0
215 0 460 0 245 -1 590 -1 768 l0 322 -119 0 -120 0 -52 -87 c-63 -107 -516
-877 -538 -915 -9 -16 -18 -28 -21 -28 -3 1 -144 232 -313 515 l-308 515 -119
0 -120 0 0 -779z"/>
<path d="M4690 5298 c-18 -40 -62 -138 -97 -218 -36 -80 -76 -170 -90 -200
-14 -30 -33 -73 -43 -95 -10 -22 -29 -65 -43 -95 -14 -30 -76 -167 -137 -305
-62 -137 -123 -272 -135 -300 -21 -46 -125 -278 -125 -279 0 -1 67 -1 150 -1
l149 0 76 181 77 181 392 0 392 1 74 -171 c40 -95 77 -176 81 -181 9 -10 299
-15 299 -5 0 8 -23 62 -63 149 -14 30 -77 170 -140 310 -63 140 -127 282 -142
315 -44 98 -107 237 -205 455 -51 113 -105 233 -121 268 l-28 62 -144 0 -144
0 -33 -72z m323 -560 c83 -193 140 -338 134 -339 -7 -1 -135 -2 -286 -3 -180
-1 -275 3 -278 9 -3 9 54 151 112 280 7 17 43 100 80 185 88 207 89 209 91
207 1 -1 67 -154 147 -339z"/>
<path d="M4845 3159 c-88 -12 -114 -19 -197 -49 -258 -94 -445 -308 -503 -577
-21 -100 -14 -306 14 -401 54 -186 162 -331 324 -439 231 -153 580 -181 842
-66 98 44 255 158 255 187 0 11 -169 176 -179 176 -3 0 -23 -16 -43 -34 -145
-130 -343 -175 -540 -122 -105 27 -166 63 -244 140 -105 105 -156 247 -149
414 6 151 60 277 157 368 101 96 209 142 354 151 166 10 302 -33 412 -132 l52
-47 62 58 c33 33 74 71 89 86 16 15 29 32 29 37 0 5 -28 34 -62 64 -80 72
-249 158 -338 172 -19 3 -48 8 -65 11 -47 9 -215 11 -270 3z"/>
<path d="M1540 2363 l0 -783 138 0 139 0 -1 510 c-1 281 0 510 1 510 1 0 84
-134 118 -192 6 -9 39 -65 75 -123 36 -58 70 -114 75 -123 66 -112 231 -380
241 -391 9 -10 34 -15 74 -14 33 0 62 2 64 4 3 4 124 207 152 256 11 18 84
140 164 273 80 132 153 255 163 273 11 17 22 35 26 40 4 4 8 -206 8 -465 1
-260 2 -493 2 -518 l1 -45 135 3 c119 3 135 5 136 20 0 9 0 226 0 482 0 256
-1 600 -1 765 l0 300 -117 0 -118 0 -28 -45 c-34 -53 -250 -419 -260 -440 -4
-8 -13 -24 -20 -35 -7 -11 -32 -54 -56 -95 -23 -41 -51 -86 -60 -100 -10 -14
-31 -47 -46 -75 -55 -96 -86 -150 -95 -165 -5 -8 -18 -30 -29 -49 l-19 -33
-27 41 c-14 23 -34 57 -44 74 -10 18 -68 115 -130 216 -61 101 -111 185 -111
188 0 3 -15 28 -34 56 -18 29 -84 138 -146 242 -62 105 -119 197 -127 205 -11
12 -39 15 -128 15 l-115 0 0 -782z"/>
</g>
</svg>
